<?xml version="1.0" encoding="utf-8"?>
<!-- Generator: Adobe Illustrator 25.1.0, SVG Export Plug-In . SVG Version: 6.00 Build 0)  -->
<svg version="1.1" id="Layer_1" xmlns="http://www.w3.org/2000/svg" xmlns:xlink="http://www.w3.org/1999/xlink" x="0px" y="0px"
	 viewBox="0 0 512 512" style="enable-background:new 0 0 512 512;" xml:space="preserve">
<style type="text/css">
	.st0{fill:#FF652F;}
	.st1{fill:#C44822;}
	.st2{fill:#F4F8FC;}
</style>
<path class="st0" d="M347.6,400.9l68.4-83.6c12.6-15.4,10.3-38.1-5-50.7L138.7,43.8c-8.6-7-21.2-5.7-28.1,2.8l0,0L21.9,155
	c-7,8.6-5.7,21.2,2.8,28.1l0,0l272.3,223C312.4,418.5,335.1,416.3,347.6,400.9z"/>
<path class="st0" d="M420,442l50.7-61.9c7-8.6,5.7-21.2-2.8-28.1l0,0l-24.8-20.2l-75.9,92.9l24.8,20.2
	C400.4,451.8,412.9,450.6,420,442L420,442z"/>
<path d="M223.1,345.5l-124-101.5l0.6-0.7l59.1-72.3l124,101.5l-59.1,72.3L223.1,345.5z"/>
<path class="st1" d="M436.7,339.4l-63.4,77.3l-23.2-19l63.4-77.3L436.7,339.4z"/>
<path class="st1" d="M119.6,66.9l272.3,222.9c15.4,12.6,17.6,35.3,5,50.7l19-23.2c12.6-15.4,10.3-38.1-5-50.7L138.7,43.7
	c-8.6-7-21.2-5.7-28.1,2.8l0,0l-19,23.2C98.5,61.2,111.1,60,119.6,66.9L119.6,66.9z"/>
<path class="st1" d="M448.9,375.2c8.6,7,9.9,19.6,2.8,28.1l0,0l19-23.2c7-8.6,5.7-21.2-2.8-28.1l0,0l-24.8-20.2l-19,23.2
	L448.9,375.2z"/>
<g>
	<path class="st2" d="M373.4,274.7c2.1-2.5,5.9-2.9,8.4-0.8l1.5,1.3c2.5,2.1,2.9,5.9,0.8,8.4c-2.1,2.5-5.9,2.9-8.4,0.8l-1.5-1.3
		C371.7,281.1,371.3,277.3,373.4,274.7z"/>
	<path class="st2" d="M282.1,199.9c2.1-2.5,5.9-2.9,8.4-0.8l71.2,58.3c2.5,2.1,2.9,5.9,0.8,8.4c-2.1,2.5-5.9,2.9-8.4,0.8L283,208.3
		C280.4,206.2,280,202.5,282.1,199.9z"/>
</g>
</svg>
