<?xml version="1.0" encoding="utf-8"?>
<!-- Generator: Adobe Illustrator 25.1.0, SVG Export Plug-In . SVG Version: 6.00 Build 0)  -->
<svg version="1.1" id="Layer_1" xmlns="http://www.w3.org/2000/svg" xmlns:xlink="http://www.w3.org/1999/xlink" x="0px" y="0px"
	 viewBox="0 0 512 512" style="enable-background:new 0 0 512 512;" xml:space="preserve">
<style type="text/css">
	.st0{fill:#FF652F;}
	.st1{fill:#C44822;}
	.st2{fill:#F4F8FC;}
</style>
<path class="st0" d="M363.7,389.7l58.5-90.8c10.8-16.7,6-39-10.7-49.8L115.7,58.4c-9.3-6-21.7-3.3-27.6,6c0,0,0,0,0,0L12.2,182.1
	c-6,9.3-3.3,21.7,6,27.6c0,0,0,0,0,0L314,400.5C330.7,411.2,353,406.4,363.7,389.7z"/>
<path class="st0" d="M440.2,422.4l43.4-67.2c6-9.3,3.3-21.7-6-27.6c0,0,0,0,0,0l-26.9-17.3l-65,100.9l26.9,17.3
	C421.9,434.3,434.2,431.7,440.2,422.4C440.2,422.4,440.2,422.4,440.2,422.4z"/>
<path d="M233.7,348.7L99,261.9l0.5-0.8l50.6-78.5l134.7,86.8l-50.6,78.5L233.7,348.7z"/>
<path class="st1" d="M445.3,318.6l-54.2,84l-25.2-16.3l54.2-84L445.3,318.6z"/>
<path class="st1" d="M99.4,83.6l295.8,190.7c16.7,10.8,21.5,33.1,10.7,49.8l16.3-25.2c10.8-16.7,6-39-10.7-49.8L115.7,58.4
	c-9.3-6-21.7-3.3-27.6,6c0,0,0,0,0,0L71.8,89.6C77.7,80.3,90.1,77.7,99.4,83.6C99.4,83.6,99.4,83.6,99.4,83.6z"/>
<path class="st1" d="M461.4,352.7c9.3,6,12,18.4,6,27.6c0,0,0,0,0,0l16.3-25.2c6-9.3,3.3-21.7-6-27.6c0,0,0,0,0,0l-26.9-17.3
	l-16.3,25.2L461.4,352.7z"/>
<g>
	<path class="st2" d="M375.1,261.4c1.8-2.8,5.5-3.6,8.3-1.8l1.7,1.1c2.8,1.8,3.6,5.5,1.8,8.3c-1.8,2.8-5.5,3.6-8.3,1.8l-1.7-1.1
		C374.1,267.9,373.3,264.2,375.1,261.4z"/>
	<path class="st2" d="M275.9,197.4c1.8-2.8,5.5-3.6,8.3-1.8l77.3,49.9c2.8,1.8,3.6,5.5,1.8,8.3c-1.8,2.8-5.5,3.6-8.3,1.8l-77.3-49.9
		C274.9,203.9,274.1,200.2,275.9,197.4z"/>
</g>
</svg>
