<svg id="Layer_1" enable-background="new 0 0 512 512" height="512" viewBox="0 0 512 512" width="512" xmlns="http://www.w3.org/2000/svg"><g id="Layer_3"><path d="m311.9 22c7.1 9 51.3 66.8 13.5 85.2-10 4.9-21.8 4.9-31.8 0-37.8-18.4 6.4-76.2 13.5-85.2 1-1.3 2.9-1.6 4.2-.6.2.2.4.4.6.6z" fill="#8bb3eb"/><g fill="#6994fe"><path d="m249 447.5c-40.5 0-78.6-6.3-107.4-17.7-30.5-12.1-47.4-28.9-47.4-47.2 0-20.1 19.7-38 55.6-50.2 3.1-1.1 6.5.6 7.6 3.7s-.6 6.5-3.7 7.6c-29.7 10.2-47.5 24.7-47.5 38.9 0 12.9 14.5 26.1 39.8 36.1 27.4 10.9 64 16.8 103 16.8s75.6-6 103-16.8c25.3-10 39.8-23.2 39.8-36.1 0-12.2-13.2-24.8-36.1-34.6-3.1-1.3-4.5-4.8-3.2-7.8 1.3-3.1 4.8-4.5 7.8-3.2h.1c28 11.9 43.4 28.1 43.4 45.6 0 18.4-16.8 35.1-47.4 47.2-28.8 11.5-66.9 17.7-107.4 17.7z"/><path d="m166.9 497.2c-.4 0-.7 0-1.1-.1-97.7-17.6-160.8-61.2-160.8-111.1 0-23.8 14.3-46.6 41.4-66 25.5-18.2 61.1-32.7 103.2-41.9 3.2-.7 6.4 1.3 7.1 4.6s-1.3 6.4-4.6 7.1c-82 18-135.1 55.8-135.1 96.2 0 43.1 60.7 83 150.9 99.3 3.3.6 5.4 3.7 4.8 7-.4 2.8-2.9 4.9-5.8 4.9z"/><path d="m461.4 322.8c-23-17.5-55.7-32-94.4-41.8-3.2-.8-6.5 1.1-7.3 4.4-.8 3.2 1.1 6.5 4.4 7.3 37.1 9.4 68.3 23.1 90.1 39.7 15 11.4 32.9 30 32.9 53.6 0 41.3-54.6 79.3-139.1 97-2.8.6-4.8 3-4.8 5.9 0 3.3 2.7 6 6 6 .4 0 .8 0 1.2-.1 43.1-9 79.8-23.5 106-41.9 27.9-19.6 42.7-42.7 42.7-66.9-.1-22.6-13.1-44.4-37.7-63.2z"/></g></g><g><path d="m262.6 131.2c19.5 25 141.7 184.7 37.4 235.4-27.8 13.5-60.2 13.5-87.9 0-104.3-50.7 17.9-210.4 37.4-235.4.8-1 1.8-1.8 3-2.4 1.1-.6 2.4-.9 3.6-.9 2.5 0 4.9 1.3 6.5 3.3z" fill="#8bb3eb"/><path d="m242 366.6c-94.1-45.7-3.9-180.1 29-224.3-3.6-4.8-6.5-8.6-8.4-11-1.6-2.1-4-3.3-6.6-3.3-1.3 0-2.5.3-3.6.9-1.2.6-2.2 1.4-3 2.4-19.5 25-141.7 184.7-37.4 235.4 18.3 8.9 38.9 12 59 9-10.1-1.6-19.8-4.7-29-9.1z" fill="#7597bf"/><path d="m264.1 352c-3.3 0-6-2.7-6-6s2.7-6 6-6c22 0 39.9-17.9 39.9-39.9 0-3.3 2.7-6 6-6s6 2.7 6 6c0 28.7-23.2 51.9-51.9 51.9z" fill="#f4f8fc"/></g></svg>