<svg id="Capa_1" enable-background="new 0 0 512 512" height="512" viewBox="0 0 512 512" width="512" xmlns="http://www.w3.org/2000/svg" xmlns:xlink="http://www.w3.org/1999/xlink"><radialGradient id="SVGID_1_" cx="176.551" cy="448.592" gradientTransform="matrix(1 0 0 .704 0 132.595)" gradientUnits="userSpaceOnUse" r="74.778"><stop offset="0" stop-color="#ddeafb"/><stop offset=".6651" stop-color="#bed8fb"/><stop offset=".7608" stop-color="#adc9f2"/><stop offset=".9501" stop-color="#80a3da"/><stop offset="1" stop-color="#7398d3"/></radialGradient><radialGradient id="SVGID_2_" cx="205.853" cy="275.699" fx="95.191" fy="279.683" gradientTransform="matrix(-1 0 0 -3.515 411.705 1244.686)" gradientUnits="userSpaceOnUse" r="110.734"><stop offset="0" stop-color="#fff"/><stop offset=".5145" stop-color="#ddeafb"/><stop offset="1" stop-color="#cbe2ff"/></radialGradient><radialGradient id="SVGID_3_" cx="193.79" cy="84.178" gradientTransform="matrix(1 0 0 .502 0 41.892)" gradientUnits="userSpaceOnUse" r="77.214"><stop offset="0" stop-color="#ddeafb"/><stop offset=".5333" stop-color="#bed8fb"/><stop offset=".6666" stop-color="#adc9f2"/><stop offset=".9305" stop-color="#80a3da"/><stop offset="1" stop-color="#7398d3"/></radialGradient><radialGradient id="SVGID_4_" cx="205.102" cy="282.089" gradientTransform="matrix(-1 0 0 -3.515 410.203 1273.533)" gradientUnits="userSpaceOnUse" r="106.975"><stop offset="0" stop-color="#fff"/><stop offset=".5145" stop-color="#ecf4ff"/><stop offset="1" stop-color="#ddeafb"/></radialGradient><radialGradient id="SVGID_5_" cx="193.453" cy="276.928" gradientTransform="matrix(1 0 0 1.472 0 -130.819)" gradientUnits="userSpaceOnUse" r="259.397"><stop offset="0" stop-color="#cbe2ff"/><stop offset=".1208" stop-color="#c5deff"/><stop offset=".2826" stop-color="#b4d4fe"/><stop offset=".467" stop-color="#98c3fc"/><stop offset=".5974" stop-color="#80b4fb"/><stop offset="1" stop-color="#7398d3"/></radialGradient><linearGradient id="lg1"><stop offset="0" stop-color="#9dc6fb"/><stop offset=".4866" stop-color="#72acfa"/><stop offset=".6651" stop-color="#61a2f9"/><stop offset=".7619" stop-color="#5895e8"/><stop offset=".9534" stop-color="#4172bb"/><stop offset="1" stop-color="#3b69af"/></linearGradient><radialGradient id="SVGID_6_" cx="333.886" cy="44.662" gradientTransform="matrix(-.931 0 0 -.585 531.484 66.974)" gradientUnits="userSpaceOnUse" r="45.117" xlink:href="#lg1"/><radialGradient id="SVGID_7_" cx="327.697" cy="60.403" gradientTransform="matrix(-.931 0 0 .701 519.962 -14.535)" gradientUnits="userSpaceOnUse" r="47.82" xlink:href="#lg1"/><linearGradient id="lg2"><stop offset="0" stop-color="#f4fbff"/><stop offset=".5145" stop-color="#cbe2ff"/><stop offset="1" stop-color="#bed8fb"/></linearGradient><radialGradient id="SVGID_8_" cx="332.108" cy="33.763" gradientTransform="matrix(-.931 0 0 -.585 528.173 52.195)" gradientUnits="userSpaceOnUse" r="58.085" xlink:href="#lg2"/><radialGradient id="SVGID_9_" cx="327.992" cy="81.679" gradientTransform="matrix(-.931 0 0 .77 520.511 -72.175)" gradientUnits="userSpaceOnUse" r="75.49" xlink:href="#lg2"/><linearGradient id="lg3"><stop offset="0" stop-color="#80b4fb"/><stop offset=".1693" stop-color="#7aaffb"/><stop offset=".3956" stop-color="#69a1fa"/><stop offset=".5974" stop-color="#5490f9"/><stop offset="1" stop-color="#4278c3"/></linearGradient><radialGradient id="SVGID_10_" cx="410.971" cy="50.48" gradientTransform="matrix(-.931 0 0 -.585 674.989 74.863)" gradientUnits="userSpaceOnUse" r="95.967" xlink:href="#lg3"/><radialGradient id="SVGID_11_" cx="409.357" cy="64.313" gradientTransform="matrix(-.931 0 0 .45 671.986 -7.969)" gradientUnits="userSpaceOnUse" r="97.053" xlink:href="#lg3"/><radialGradient id="SVGID_12_" cx="297.008" cy="201.031" gradientTransform="matrix(.226 0 0 -.249 78.036 250.995)" gradientUnits="userSpaceOnUse" r="398.878" xlink:href="#lg2"/><radialGradient id="SVGID_13_" cx="316.167" cy="237.425" gradientTransform="matrix(-1 0 0 -1.984 632.335 708.38)" gradientUnits="userSpaceOnUse" r="149.797" xlink:href="#lg3"/><radialGradient id="SVGID_14_" cx="188.614" cy="274.771" gradientTransform="matrix(1 0 0 1.472 0 -129.801)" gradientUnits="userSpaceOnUse" r="252.758"><stop offset="0" stop-color="#d3effb"/><stop offset=".1487" stop-color="#cdeafb"/><stop offset=".3479" stop-color="#bcdefb"/><stop offset=".575" stop-color="#a0c8fb"/><stop offset=".5974" stop-color="#9dc6fb"/><stop offset="1" stop-color="#89aada"/></radialGradient><radialGradient id="SVGID_15_" cx="392.24" cy="1173.809" gradientTransform="matrix(.931 0 0 .112 -111.519 359.782)" gradientUnits="userSpaceOnUse" r="178.927"><stop offset="0" stop-color="#cbe2ff"/><stop offset=".1435" stop-color="#d6e8ff"/><stop offset=".4962" stop-color="#ecf4ff"/><stop offset=".8982" stop-color="#fff"/></radialGradient><radialGradient id="SVGID_16_" cx="193.453" cy="280.174" gradientTransform="matrix(1 0 0 1.472 0 -132.353)" gradientUnits="userSpaceOnUse" r="257.025"><stop offset="0" stop-color="#ddeafb"/><stop offset=".1335" stop-color="#d7e7fb"/><stop offset=".3124" stop-color="#c6ddfb"/><stop offset=".5163" stop-color="#aacdfb"/><stop offset=".5974" stop-color="#9dc6fb"/><stop offset="1" stop-color="#89aada"/></radialGradient><g><path d="m145.546 457.69v5.509c0 15.206 12.327 27.533 27.533 27.533h40.703c-2.646 0 3.039-22.5 4.025-43.098z" fill="url(#SVGID_1_)"/><path d="m152.804 134.707c-4.672 10.97-7.258 23.043-7.258 35.719v11.507l7.258 78.479-7.258 45.785v151.493h66.08c3.337-69.713 24.924-244.576 36.305-334.735z" fill="url(#SVGID_2_)"/><path d="m254.366 72.147-12.333-16.221h-40.703v17.061c0 7.714-4.095 14.837-10.744 18.749l60.354 9.702c1.449-11.609 3.426-28.344 3.426-29.291z" fill="url(#SVGID_3_)"/><path d="m252.075 91.735h-61.489c-16.762 9.861-30.096 24.925-37.782 42.972h93.851c2.205-17.464 4.074-32.192 5.42-42.972z" fill="url(#SVGID_4_)"/><path d="m193.507 134.707c-4.672 10.97-7.258 23.043-7.258 35.719v292.772c0 15.206 12.327 27.533 27.533 27.533h125.139c15.206 0 27.533-12.327 27.533-27.533v-157.001l-3.713-49.704 3.713-74.561v-11.507c0-12.677-2.586-24.749-7.258-35.719l-79.225-5.488z" fill="url(#SVGID_5_)"/><path d="m245.718 44.103-50.987 6.184v3.737c0 1.583 1.283 2.866 2.866 2.866h43.287c-.689 0 4.924-9.284 4.834-12.787z" fill="url(#SVGID_6_)"/><path d="m244.859 28.987-50.128 3.779v3.419c0 2.381 1.93 4.311 4.311 4.311h43.287c-.7 0 2.38-6.984 2.53-11.509z" fill="url(#SVGID_7_)"/><path d="m240.883 40.496h-43.287c-1.583 0-2.866 1.283-2.866 2.866v6.926h44.986c-.116-4.555.273-9.792 1.167-9.792z" fill="url(#SVGID_8_)"/><path d="m248.724 0h-47.588c-3.538 0-6.405 2.868-6.405 6.405v26.36h46.802c.361-10.873 3.016-32.765 7.191-32.765z" fill="url(#SVGID_9_)"/><path d="m311.82 56.89h-70.937c-1.583 0-2.866-1.283-2.866-2.866v-10.662c0-1.583 1.283-2.866 2.866-2.866h70.937c1.583 0 2.866 1.283 2.866 2.866v10.662c0 1.583-1.283 2.866-2.866 2.866z" fill="url(#SVGID_10_)"/><path d="m308.28 0h-63.857c-3.538 0-6.406 2.868-6.406 6.406v29.779c0 2.381 1.93 4.311 4.311 4.311h68.045c2.381 0 4.311-1.93 4.311-4.311v-29.779c.002-3.538-2.866-6.406-6.404-6.406z" fill="url(#SVGID_11_)"/><path d="m145.546 306.197h40.703l17.836-62.132-17.836-62.132h-40.703z" fill="url(#SVGID_12_)"/><path d="m186.249 181.933h180.205v124.265h-180.205z" fill="url(#SVGID_13_)"/><path d="m309.524 250.48c0 16.321-13.231 29.552-29.552 29.552s-29.552-13.231-29.552-29.552 29.552-48.555 29.552-48.555 29.552 32.234 29.552 48.555z" fill="url(#SVGID_14_)"/><path d="m256 512c95.876 0 173.599-9.522 173.599-21.269h-347.198c0 11.747 77.723 21.269 173.599 21.269z" fill="url(#SVGID_15_)"/><path d="m321.414 91.735c-6.649-3.911-10.744-11.034-10.744-18.749v-17.061h-68.637v17.061c0 7.714-4.095 14.837-10.744 18.749-16.762 9.861-30.096 24.925-37.782 42.972h165.689c-7.686-18.047-21.02-33.111-37.782-42.972z" fill="url(#SVGID_16_)"/></g></svg>